<?xml version="1.0" standalone="no"?>
<!DOCTYPE svg PUBLIC "-//W3C//DTD SVG 20010904//EN"
 "http://www.w3.org/TR/2001/REC-SVG-20010904/DTD/svg10.dtd">
<svg version="1.0" xmlns="http://www.w3.org/2000/svg"
 width="1280.000000pt" height="640.000000pt" viewBox="0 0 1280.000000 640.000000"
 preserveAspectRatio="xMidYMid meet">

<g transform="translate(0.000000,640.000000) scale(0.100000,-0.100000)"
fill="#000000" stroke="none">
<path d="M2815 4346 c-17 -11 -82 -48 -160 -90 -11 -6 -31 -18 -45 -27 -14 -9
-70 -42 -125 -74 -55 -32 -103 -63 -107 -69 -4 -6 -8 -351 -8 -767 0 -590 3
-758 13 -770 12 -15 37 -32 99 -67 18 -11 125 -72 238 -137 113 -65 286 -164
384 -221 l180 -103 60 32 c34 17 88 48 122 69 34 21 64 38 67 38 4 0 30 15 59
33 29 19 78 47 108 63 30 16 57 31 60 34 5 5 137 82 235 136 28 15 84 48 125
73 l75 47 3 251 2 251 50 31 c28 17 53 31 55 31 3 0 22 11 43 23 20 13 57 35
82 48 25 13 82 46 128 74 l82 49 0 271 0 271 -32 17 c-18 10 -49 27 -68 38
-19 11 -110 63 -202 116 l-167 95 -108 -61 c-59 -34 -164 -94 -233 -134 l-125
-73 -3 -252 -2 -253 -43 -25 c-23 -13 -95 -56 -161 -94 -65 -39 -122 -70 -126
-70 -4 0 -13 -7 -20 -15 -8 -10 -17 -12 -23 -6 -5 5 -8 198 -8 477 1 258 -2
475 -7 481 -8 13 -433 259 -462 268 -9 3 -24 -1 -35 -9z m206 -151 c226 -130
213 -116 137 -160 -34 -21 -83 -49 -108 -63 -25 -14 -56 -33 -70 -42 -33 -23
-127 -70 -139 -70 -5 0 -49 23 -98 51 -48 28 -104 60 -123 71 -94 52 -140 83
-140 94 0 6 64 48 143 93 78 44 156 90 172 101 17 11 37 20 46 20 9 0 90 -43
180 -95z m1303 -237 c77 -44 155 -89 171 -98 55 -31 41 -45 -144 -152 l-174
-100 -36 17 c-35 16 -72 37 -250 141 -46 27 -84 54 -84 59 0 5 40 33 89 62 49
28 127 74 174 102 47 27 91 50 99 50 7 1 77 -36 155 -81z m-1821 26 c29 -15
54 -30 55 -35 2 -5 8 -9 12 -9 14 0 234 -130 242 -143 4 -7 8 -235 8 -509 l0
-496 58 -33 c31 -19 65 -37 76 -41 10 -5 30 -17 45 -27 14 -10 60 -36 101 -58
41 -22 94 -52 118 -66 l42 -27 0 -210 c0 -115 -4 -211 -8 -214 -5 -3 -71 31
-148 76 -76 44 -155 89 -174 100 -19 10 -48 27 -65 37 -16 10 -50 29 -75 43
-25 14 -101 58 -170 98 -69 40 -138 80 -155 90 l-30 17 -3 716 c-1 491 1 717
8 717 6 0 34 -12 63 -26z m757 -431 c0 -411 -2 -458 -17 -475 -9 -10 -20 -18
-26 -18 -5 0 -21 -8 -35 -18 -15 -11 -52 -32 -82 -47 -30 -16 -62 -34 -70 -41
-8 -6 -45 -28 -82 -48 l-68 -38 0 470 0 470 83 48 c45 26 100 58 122 69 22 12
63 36 90 53 92 58 85 94 85 -425z m700 105 l180 -102 0 -213 c0 -140 -4 -213
-10 -213 -6 0 -92 46 -190 103 l-180 102 0 213 c0 141 4 212 10 212 6 0 92
-46 190 -102z m620 -110 l0 -213 -33 -19 c-83 -48 -105 -61 -152 -87 -27 -15
-77 -44 -110 -63 -32 -20 -64 -35 -70 -33 -6 2 -11 79 -13 210 l-2 206 42 28
c91 57 314 183 326 183 9 0 12 -49 12 -212z m-783 -300 c30 -18 62 -37 72 -43
9 -5 63 -36 119 -68 56 -32 102 -64 102 -72 0 -7 -39 -35 -87 -61 -49 -26
-135 -75 -193 -109 -174 -102 -517 -295 -524 -295 -6 0 -90 46 -175 95 -9 6
-56 32 -104 59 -48 27 -87 52 -87 56 0 11 17 23 90 63 80 43 150 83 302 173
122 71 249 145 347 201 31 18 62 32 70 33 7 0 38 -15 68 -32z m341 -459 l-3
-212 -64 -39 c-35 -21 -87 -51 -115 -67 -28 -15 -94 -53 -146 -83 -52 -30
-115 -66 -140 -80 -25 -14 -88 -50 -140 -80 -143 -83 -190 -108 -200 -108 -6
0 -10 84 -10 215 0 186 2 216 16 222 8 3 85 45 171 94 85 49 159 89 164 89 5
0 9 5 9 10 0 6 4 10 9 10 5 0 65 32 133 71 221 129 293 168 306 169 10 0 12
-46 10 -211z"/>
<path d="M5245 3797 c-3 -12 -4 -287 -3 -612 l3 -590 285 0 285 0 0 80 0 80
-187 3 -187 2 -6 43 c-3 23 -5 259 -3 525 2 265 1 483 -2 483 -3 1 -44 3 -92
5 -83 3 -88 2 -93 -19z"/>
<path d="M10256 3812 c-3 -3 -6 -279 -6 -614 l0 -609 88 3 87 3 0 610 0 610
-82 1 c-45 1 -84 -1 -87 -4z"/>
<path d="M6165 3406 c-124 -40 -215 -130 -265 -261 -33 -87 -34 -217 -1 -300
46 -114 105 -181 206 -233 67 -35 74 -36 175 -36 103 -1 106 0 160 34 30 19
64 44 75 57 11 13 24 23 28 23 4 0 7 -22 7 -50 l0 -50 90 0 90 0 0 405 0 406
-87 -3 -88 -3 -3 -47 c-2 -27 -7 -48 -12 -48 -4 0 -19 13 -33 29 -13 16 -49
42 -78 58 -45 23 -68 28 -139 30 -50 2 -102 -3 -125 -11z m280 -187 c133 -92
140 -327 13 -434 -48 -41 -96 -58 -158 -57 -68 0 -114 20 -167 69 -57 54 -76
101 -76 198 0 90 14 133 64 190 41 47 81 67 149 75 63 7 125 -7 175 -41z"/>
<path d="M7715 3397 c-73 -32 -118 -62 -155 -105 -83 -97 -115 -193 -108 -326
4 -77 10 -101 39 -160 44 -90 114 -160 199 -200 58 -27 76 -30 160 -31 82 0
101 3 140 24 25 13 55 29 67 35 12 6 28 21 34 34 19 34 34 21 37 -32 l3 -47
87 3 87 3 3 403 2 402 -90 0 -90 0 0 -43 c0 -24 -3 -47 -6 -50 -4 -3 -27 11
-51 33 -91 80 -247 105 -358 57z m252 -150 c76 -29 144 -119 159 -215 9 -57
-12 -138 -51 -198 -100 -153 -336 -136 -422 30 -20 39 -28 170 -14 223 16 58
67 121 121 149 50 27 149 32 207 11z"/>
<path d="M9595 3407 c-99 -33 -170 -85 -228 -165 -49 -68 -68 -126 -74 -222
-12 -190 76 -343 236 -412 71 -31 83 -33 196 -33 111 0 124 2 175 27 57 28 88
50 149 104 l35 32 -33 28 c-19 16 -46 37 -60 46 -26 17 -27 16 -66 -18 -123
-107 -300 -112 -390 -12 -39 43 -65 94 -65 128 0 20 5 20 320 20 l320 0 0 54
c0 127 -41 231 -124 319 -74 78 -146 109 -261 113 -57 3 -105 -1 -130 -9z
m247 -162 c47 -34 97 -114 98 -157 l0 -28 -230 0 c-261 0 -255 -2 -225 76 22
59 56 97 108 123 35 18 56 21 124 19 72 -3 86 -7 125 -33z"/>
<path d="M6900 2995 l0 -405 90 0 90 0 2 318 3 317 163 3 162 2 0 85 0 85
-255 0 -255 0 0 -405z"/>
<path d="M8420 3394 c0 -5 132 -354 155 -409 7 -16 43 -112 81 -212 l69 -183
116 0 116 0 71 178 c84 209 242 622 242 629 0 2 -40 3 -89 3 l-89 0 -12 -32
c-6 -18 -18 -49 -26 -68 -7 -19 -45 -118 -84 -219 -39 -102 -74 -189 -79 -195
-4 -6 -14 -32 -21 -58 -7 -27 -18 -48 -24 -48 -6 0 -33 57 -60 128 -27 70 -75
197 -108 282 -33 85 -64 167 -70 183 -10 27 -12 27 -99 27 -49 0 -89 -3 -89
-6z"/>
</g>
</svg>
